<svg width="18" height="18" viewBox="0 0 18 18" fill="none" xmlns="http://www.w3.org/2000/svg">
<path fill-rule="evenodd" clip-rule="evenodd" d="M9.00008 17.3333C13.6025 17.3333 17.3334 13.6024 17.3334 9C17.3334 4.39763 13.6025 0.666668 9.00008 0.666668C4.39771 0.666668 0.666748 4.39763 0.666748 9C0.666748 13.6024 4.39771 17.3333 9.00008 17.3333ZM11.7619 6.32741C12.0873 6.00198 12.6149 6.00198 12.9404 6.32741C13.2658 6.65285 13.2658 7.18049 12.9404 7.50592L7.94038 12.5059C7.61494 12.8314 7.0873 12.8314 6.76187 12.5059L4.66083 10.4049C4.33539 10.0794 4.33539 9.55181 4.66083 9.22637C4.98626 8.90094 5.5139 8.90094 5.83934 9.22637L7.35112 10.7382L11.7619 6.32741Z" fill="#0BB07B"/>
</svg>
