<svg width="18" height="17" viewBox="0 0 18 17" fill="none" xmlns="http://www.w3.org/2000/svg">
<path fill-rule="evenodd" clip-rule="evenodd" d="M7.24422 1.21893C8.00226 -0.170798 9.99777 -0.170795 10.7558 1.21893L17.3867 13.3756C18.1137 14.7084 17.149 16.3333 15.6309 16.3333H2.3691C0.850978 16.3333 -0.113648 14.7084 0.613306 13.3756L7.24422 1.21893ZM8.24605 12.5833C8.24605 12.1231 8.61914 11.75 9.07938 11.75C9.53962 11.75 9.91271 12.1231 9.91271 12.5833C9.91271 13.0436 9.53962 13.4167 9.07938 13.4167C8.61914 13.4167 8.24605 13.0436 8.24605 12.5833ZM9.07938 5.49998C8.61914 5.49998 8.24605 5.87308 8.24605 6.33332V9.66665C8.24605 10.1269 8.61914 10.5 9.07938 10.5C9.53962 10.5 9.91271 10.1269 9.91271 9.66665V6.33332C9.91271 5.87308 9.53962 5.49998 9.07938 5.49998Z" fill="#F03D3D"/>
</svg>
